<svg xmlns="http://www.w3.org/2000/svg" xmlns:xlink="http://www.w3.org/1999/xlink" width="600" height="500" viewBox="0 0 158.75 132.292"><defs><linearGradient id="prefix__c"><stop offset="0" stop-color="#282828"/><stop offset=".66" stop-color="#282828"/><stop offset="1" stop-color="#3c3c3c"/></linearGradient><linearGradient id="prefix__b"><stop offset="0" stop-color="#505050"/><stop offset="1" stop-color="#505050" stop-opacity="0"/></linearGradient><linearGradient id="prefix__a"><stop offset="0" stop-color="#282828"/><stop offset=".524" stop-color="#3c3c3c"/><stop offset="1" stop-color="#505050"/></linearGradient><linearGradient xlink:href="#prefix__a" id="prefix__e" x1="79.375" y1="97.896" x2="79.375" y2="66.146" gradientUnits="userSpaceOnUse" gradientTransform="translate(-52.917 -.24)"/><linearGradient xlink:href="#prefix__a" id="prefix__f" x1="79.375" y1="97.896" x2="79.375" y2="66.146" gradientUnits="userSpaceOnUse" gradientTransform="translate(-39.687 -.24)"/><linearGradient xlink:href="#prefix__a" id="prefix__g" x1="79.375" y1="97.896" x2="79.375" y2="66.146" gradientUnits="userSpaceOnUse" gradientTransform="translate(-13.23)"/><linearGradient xlink:href="#prefix__a" id="prefix__h" x1="79.375" y1="97.896" x2="79.375" y2="66.146" gradientUnits="userSpaceOnUse"/><linearGradient xlink:href="#prefix__a" id="prefix__i" x1="79.375" y1="97.896" x2="79.375" y2="66.146" gradientUnits="userSpaceOnUse" gradientTransform="translate(13.23)"/><linearGradient xlink:href="#prefix__a" id="prefix__j" x1="79.375" y1="97.896" x2="79.375" y2="66.146" gradientUnits="userSpaceOnUse" gradientTransform="translate(39.687)"/><linearGradient xlink:href="#prefix__a" id="prefix__k" x1="79.375" y1="97.896" x2="79.375" y2="66.146" gradientUnits="userSpaceOnUse" gradientTransform="translate(52.917)"/><linearGradient xlink:href="#prefix__c" id="prefix__d" x1="74.083" y1="132.292" x2="74.083" y2="0" gradientUnits="userSpaceOnUse"/><path id="prefix__p" d="M-50.271 21.167h37.042v29.104h-37.042z"/><path id="prefix__l" d="M21.167 31.75h21.167v13.229H21.167z"/><path id="prefix__n" d="M-50.271 21.167h37.042v29.104h-37.042z"/><path id="prefix__m" d="M-50.271 21.167h37.042v29.104h-37.042z"/><path id="prefix__o" d="M-50.271 21.167h37.042v29.104h-37.042z"/><path id="prefix__q" d="M-50.271 21.167h37.042v29.104h-37.042z"/></defs><rect width="158.75" height="132.292" y="-.24" ry="2.646" opacity=".998" fill="url(#prefix__d)"/><rect width="13.229" height="63.5" x="13.229" y="66.146" ry="1.323" opacity=".998" fill="#fff" stroke="#505050" stroke-width=".265"/><rect width="13.229" height="63.5" x="26.458" y="66.146" ry="1.323" opacity=".998" fill="#fff" stroke="#505050" stroke-width=".334"/><rect width="13.229" height="63.5" x="39.688" y="66.146" ry="1.323" opacity=".998" fill="#fff" stroke="#505050" stroke-width=".334"/><rect width="13.229" height="63.5" x="52.917" y="66.146" ry="1.323" opacity=".998" fill="#fff" stroke="#505050" stroke-width=".334"/><rect width="13.229" height="63.5" x="66.146" y="66.146" ry="1.323" opacity=".998" fill="#fff" stroke="#505050" stroke-width=".334"/><rect width="13.229" height="63.5" x="79.375" y="66.146" ry="1.323" opacity=".998" fill="#fff" stroke="#505050" stroke-width=".334"/><rect width="13.229" height="63.5" x="92.604" y="66.146" ry="1.323" opacity=".998" fill="#fff" stroke="#505050" stroke-width=".334"/><rect width="13.229" height="63.5" x="105.833" y="66.146" ry="1.323" opacity=".998" fill="#fff" stroke="#505050" stroke-width=".334"/><rect width="13.229" height="63.5" x="119.062" y="66.146" ry="1.323" opacity=".998" fill="#fff" stroke="#505050" stroke-width=".334"/><rect width="13.229" height="63.5" x="132.292" y="66.146" ry="1.323" opacity=".998" fill="#fff" stroke="#505050" stroke-width=".334"/><rect width="7.938" height="31.75" x="22.49" y="65.905" ry=".661" opacity=".998" fill="url(#prefix__e)"/><rect width="7.938" height="31.75" x="35.719" y="65.905" ry=".661" opacity=".998" fill="url(#prefix__f)"/><rect width="7.938" height="31.75" x="62.177" y="66.146" ry=".661" opacity=".998" fill="url(#prefix__g)"/><rect width="7.938" height="31.75" x="75.406" y="66.146" ry=".661" opacity=".998" fill="url(#prefix__h)"/><rect width="7.938" height="31.75" x="88.635" y="66.146" ry=".661" opacity=".998" fill="url(#prefix__i)"/><rect width="7.938" height="31.75" x="115.094" y="66.146" ry=".661" opacity=".998" fill="url(#prefix__j)"/><rect width="7.938" height="31.75" x="128.323" y="66.146" ry=".661" opacity=".998" fill="url(#prefix__k)"/><text font-weight="400" font-size="10.583" font-family="sans-serif"></text><g><rect width="31.464" height="31.464" x="13.24" y="5.302" ry="2.86" opacity=".998" fill="#5a5a5a" stroke="#b4b4b4" stroke-width=".286"/><g transform="translate(-19.844 6.615)" stroke="#b4b4b4" stroke-width=".265"><circle cx="83.476" cy="17.33" r="3.969" opacity=".998" fill="#282828"/><path d="M83.344 17.198v-3.969" fill="none"/></g><g transform="translate(-6.615 6.615)" stroke="#b4b4b4" stroke-width=".265"><circle cx="83.476" cy="17.33" r="3.969" opacity=".998" fill="#282828"/><path d="M83.344 17.198v-3.969" fill="none"/></g><g transform="translate(6.615 6.615)" stroke="#b4b4b4" stroke-width=".265"><circle cx="83.476" cy="17.33" r="3.969" opacity=".998" fill="#282828"/><path d="M83.344 17.198v-3.969" fill="none"/></g><g transform="translate(19.844 6.615)" stroke="#b4b4b4" stroke-width=".265"><circle cx="83.476" cy="17.33" r="3.969" opacity=".998" fill="#282828"/><path d="M83.344 17.198v-3.969" fill="none"/></g><g transform="translate(-19.844 22.49)" stroke="#b4b4b4" stroke-width=".265"><circle cx="83.476" cy="17.33" r="3.969" opacity=".998" fill="#282828"/><path d="M83.344 17.198v-3.969" fill="none"/></g><g transform="translate(-6.615 22.49)" stroke="#b4b4b4" stroke-width=".265"><circle cx="83.476" cy="17.33" r="3.969" opacity=".998" fill="#282828"/><path d="M83.344 17.198v-3.969" fill="none"/></g><g transform="translate(6.615 22.49)" stroke="#b4b4b4" stroke-width=".265"><circle cx="83.476" cy="17.33" r="3.969" opacity=".998" fill="#282828"/><path d="M83.344 17.198v-3.969" fill="none"/></g><g transform="translate(19.844 22.49)" stroke="#b4b4b4" stroke-width=".265"><circle cx="83.476" cy="17.33" r="3.969" opacity=".998" fill="#282828"/><path d="M83.344 17.198v-3.969" fill="none"/></g><rect width="7.879" height="5.233" x="59.59" y="7.938" ry=".476" opacity=".998" fill="#505050" stroke="#b4b4b4" stroke-width=".058"/><rect width="7.879" height="5.233" x="72.819" y="7.996" ry=".476" opacity=".998" fill="#505050" stroke="#b4b4b4" stroke-width=".058"/><rect width="7.879" height="5.233" x="86.048" y="7.996" ry=".476" opacity=".998" fill="#505050" stroke="#b4b4b4" stroke-width=".058"/><rect width="7.879" height="5.233" x="99.219" y="7.938" ry=".476" opacity=".998" fill="#505050" stroke="#b4b4b4" stroke-width=".058"/><rect width="20.976" height="20.976" x="113.962" y="7.938" ry="1.907" opacity=".998" fill="#282828" stroke="#b4b4b4" stroke-width=".191"/><text transform="matrix(1.33333 0 0 1.33333 184.788 -16.704)" font-weight="400" font-size="1.587" font-family="sans-serif" fill="#fff"><tspan x="-50.271" y="22.614"> <tspan style="-inkscape-font-specification:serif" font-family="serif"> Mini Osc Mode</tspan> </tspan></text><text transform="matrix(1.33333 0 0 1.33333 185.137 -7.632)" font-weight="400" font-size="1.587" font-family="serif" fill="#fff"><tspan x="-50.271" y="22.575"> <tspan style="-inkscape-font-specification:serif"> sawtooth wave</tspan> </tspan></text><g transform="translate(62.177 6.615)" stroke="#b4b4b4" stroke-width=".265"><circle cx="83.476" cy="17.33" r="3.969" opacity=".998" fill="#282828"/><path d="M83.344 17.198v-3.969" fill="none"/></g><g transform="translate(62.177 22.49)" stroke="#b4b4b4" stroke-width=".265"><circle cx="83.476" cy="17.33" r="3.969" opacity=".998" fill="#282828"/><path d="M83.344 17.198v-3.969" fill="none"/></g><g transform="translate(62.177 -7.938)" stroke="#b4b4b4" stroke-width=".265"><circle cx="83.476" cy="17.33" r="3.969" opacity=".998" fill="#282828"/><path d="M83.344 17.198v-3.969" fill="none"/></g><rect width="7.879" height="5.233" x="113.829" y="37.1" ry=".476" opacity=".998" fill="#aaaa50" stroke="#b4b4b4" stroke-width=".058"/><rect width="7.879" height="5.233" x="127" y="37.042" ry=".476" opacity=".998" fill="#aaaa50" stroke="#b4b4b4" stroke-width=".058"/><g transform="translate(-33.073 35.719)" fill="#c76421" stroke="#b4b4b4" stroke-width=".265"><circle cx="83.476" cy="17.33" r="3.969" opacity=".998"/><path d="M83.344 17.198v-3.969"/></g><g transform="translate(-19.844 35.719)" fill="#c76421" stroke="#b4b4b4" stroke-width=".265"><circle cx="83.476" cy="17.33" r="3.969" opacity=".998"/><path d="M83.344 17.198v-3.969"/></g><g transform="translate(-6.615 35.719)" fill="#c76421" stroke="#b4b4b4" stroke-width=".265"><circle cx="83.476" cy="17.33" r="3.969" opacity=".998"/><path d="M83.344 17.198v-3.969"/></g><g transform="translate(6.615 35.719)" fill="#c76421" stroke="#b4b4b4" stroke-width=".265"><circle cx="83.476" cy="17.33" r="3.969" opacity=".998"/><path d="M83.344 17.198v-3.969"/></g><rect width="7.879" height="5.233" x="100.6" y="50.329" ry=".476" opacity=".998" fill="#505050" stroke="#b4b4b4" stroke-width=".058"/><rect width="7.879" height="5.233" x="113.771" y="50.271" ry=".476" opacity=".998" fill="#505050" stroke="#b4b4b4" stroke-width=".058"/><rect width="5.006" height="15.589" x="18.521" y="39.974" ry="1.417" opacity=".998" fill="#282828" stroke="#b4b4b4" stroke-width=".08"/><rect width="5.006" height="15.589" x="29.39" y="39.688" ry="1.417" opacity=".998" fill="#282828" stroke="#b4b4b4" stroke-width=".08"/></g><g font-weight="400" font-size="4.233" fill="#fff"><text transform="translate(67.03 37.042)" font-family="sans-serif"><tspan x="-50.271" y="25.028"> <tspan style="-inkscape-font-specification:serif" font-family="serif"> Sound Box</tspan> </tspan></text><text transform="translate(174.186 37.987)" font-family="serif"><tspan x="-50.271" y="24.924"> <tspan style="-inkscape-font-specification:serif"> Entry Wave</tspan> </tspan></text></g></svg>